<svg xmlns="http://www.w3.org/2000/svg" viewBox="0 0 1000 1000"><path d="M666.7 352.7c-52.4 0-95 42.4-95 94.7 0 52.3 42.5 94.7 95 94.7 52.4 0 95-42.4 95-94.7 0-52.4-42.5-94.7-95-94.7zm-.2 145.4c-28.1 0-51-22.7-51-50.8 0-28 22.8-50.8 51-50.8 28.1 0 51 22.7 51 50.8 0 28.1-22.8 50.8-51 50.8zm247-287.2h-827c-36.6 0-66.3 29.7-66.3 66.3v646.6c0 36.6 29.7 66.3 66.3 66.3h827c36.6 0 66.3-29.7 66.3-66.3V277.2c-.1-36.6-29.7-66.3-66.3-66.3zM110.6 931.4c-18.3 0-33.1-14.8-33.1-33.1V790.7l288.8-218.2 378.2 358.9H110.6zm811.8-33.1c0 18.3-14.8 33.1-33.1 33.1h-60.4L680.1 788.2c-3.1-2.6-3.5-2.6-2.9-3.4l124.7-120.7 114.9 107.5c2.1 2.2 3.9 2.9 5.5 4.8l.1 121.9zm2.6-197.5l-95.5-93.5c-7.2-7.6-20.5-11.3-26.8-11.3-6.1.1-18.1 3.4-25.1 10.1L635.8 738.8c-1.9 1.8-3.5 3.8-4.9 5.9L396 514.1c-7.9-8.3-16.9-11.8-22-12.1-7.4-.7-23.2 3.4-33.8 13.4L77.5 713.9V302.5c0-18.3 14.8-33.1 33.1-33.1h778.6c18.3 0 33.1 14.8 33.1 33.1v398.3h2.7zM140.5 179.7c5.7-9.5 16.2-15.9 28.2-15.9h660.8c12 0 22.4 6.4 28.2 15.9h72C929.2 143.8 900 107 864 107H134.8c-36 0-65.2 36.8-65.7 72.7h71.4zm60.6-105.6c5-4.9 9.3-8 16.9-8h559.6c7.6 0 11.9 3.1 16.9 8h68c-.4-30.4-25.2-64.1-55.7-64.1H189.3c-30.5 0-55.3 33.7-55.6 64.1h67.4z" fill="#0dd1a2"/></svg>
