<svg xmlns="http://www.w3.org/2000/svg" viewBox="0 0 1000 1000" fill="#0dd1a2"><path d="M368.1 547.6c-101.8-18.5-127.4-116.8-128.5-121.4-5-21-25.9-33.8-47.1-29.1-21.1 4.9-34.2 26.1-29.3 47.1 1.5 6.2 37.5 152.7 190.8 180.5 2.4.4 4.8.6 7 .6 18.6 0 35.2-13.3 38.6-32.3 4-21.1-10.1-41.5-31.5-45.4z"/><path d="M821.8 655.4c-11-11-26-17.2-41.6-17.2-15.6 0-30.6 6.2-41.5 17.2L698 614.7c108.7-148.7 95.8-359-38.4-493.2C587.7 49.6 492.2 10 390.5 10c-101.6 0-197.2 39.6-269 111.5C49.6 193.3 10 288.9 10 390.5s39.6 197.2 111.5 269c71.8 71.9 167.4 111.5 269 111.5 81.8 0 159.5-25.7 224.2-73.1l40.7 40.7c-11.1 11-17.2 26-17.2 41.6 0 15.6 6.2 30.6 17.2 41.6l149.7 149.8c24.6 24.5 64.3 24.5 88.7 0l77.7-77.7c24.5-24.5 24.5-64.2 0-88.7L821.8 655.4zm-431.3-2.1c-70.2 0-136.2-27.4-185.8-77-49.6-49.6-77-115.6-77-185.8s27.3-136.2 77-185.9c49.6-49.6 115.6-77 185.8-77s136.2 27.4 185.8 77c102.4 102.5 102.4 269.2 0 371.7-49.6 49.6-115.6 77-185.8 77z"/><path d="M209.7 279.4c21.2 0 38.4 17.2 38.4 38.4s-17.2 38.4-38.4 38.4-38.4-17.2-38.4-38.4c-.1-21.2 17.1-38.4 38.4-38.4z"/></svg>
